<svg width="30" height="30" viewBox="0 0 30 30" fill="none" xmlns="http://www.w3.org/2000/svg">
<circle cx="15" cy="15" r="15" fill="#D9D9D9" fill-opacity="0.66"/>
<path d="M14.5235 22.7734C14.1606 22.7736 13.812 22.6322 13.5518 22.3793L7.13516 15.9626C6.59899 15.4258 6.59899 14.5561 7.13516 14.0193L13.5518 7.60259C13.9006 7.25544 14.4081 7.12074 14.8831 7.24922C15.3581 7.3777 15.7285 7.74985 15.8548 8.22547C15.981 8.7011 15.8439 9.20794 15.4952 9.55509L11.4321 13.625H21.8934C22.6528 13.625 23.2684 14.2406 23.2684 15C23.2684 15.7594 22.6528 16.375 21.8934 16.375H11.4366L15.4952 20.4268C15.8879 20.82 16.0053 21.411 15.7927 21.9244C15.5801 22.4379 15.0792 22.7729 14.5235 22.7734Z" fill="#2F2F2F"/>
</svg>
