<svg width="20" height="20" viewBox="0 0 20 20" fill="none" xmlns="http://www.w3.org/2000/svg">
<path fill-rule="evenodd" clip-rule="evenodd" d="M9.99992 5.20837C8.27403 5.20837 6.87492 6.60748 6.87492 8.33337C6.87492 10.0593 8.27403 11.4584 9.99992 11.4584C11.7258 11.4584 13.1249 10.0593 13.1249 8.33337C13.1249 6.60748 11.7258 5.20837 9.99992 5.20837ZM8.12492 8.33337C8.12492 7.29784 8.96438 6.45837 9.99992 6.45837C11.0355 6.45837 11.8749 7.29784 11.8749 8.33337C11.8749 9.36891 11.0355 10.2084 9.99992 10.2084C8.96438 10.2084 8.12492 9.36891 8.12492 8.33337Z" fill="#2F2F2F"/>
<path fill-rule="evenodd" clip-rule="evenodd" d="M9.99992 0.208374C5.93047 0.208374 2.70825 3.74402 2.70825 8.00729C2.70825 9.37456 3.38751 10.9846 4.24212 12.4955C5.11056 14.0308 6.21898 15.5636 7.19078 16.8028L7.2232 16.8441C7.69753 17.4491 8.10161 17.9644 8.49345 18.3204C8.92095 18.7087 9.39237 18.9629 9.99992 18.9629C10.6075 18.9629 11.0789 18.7087 11.5064 18.3204C11.8982 17.9644 12.3023 17.4491 12.7767 16.8441L12.8091 16.8028C13.7809 15.5636 14.8893 14.0308 15.7577 12.4955C16.6123 10.9846 17.2916 9.37456 17.2916 8.00729C17.2916 3.74402 14.0694 0.208374 9.99992 0.208374ZM3.95825 8.00729C3.95825 4.34647 6.70557 1.45837 9.99992 1.45837C13.2943 1.45837 16.0416 4.34647 16.0416 8.00729C16.0416 9.02937 15.5086 10.397 14.6697 11.8801C13.8447 13.3387 12.7784 14.8162 11.8254 16.0314C11.3096 16.6892 10.97 17.1188 10.6659 17.3951C10.3885 17.6471 10.2034 17.7129 9.99992 17.7129C9.79644 17.7129 9.61129 17.6471 9.33393 17.3951C9.02981 17.1188 8.6902 16.6892 8.1744 16.0314C7.2214 14.8162 6.15515 13.3387 5.33013 11.8801C4.49127 10.397 3.95825 9.02937 3.95825 8.00729Z" fill="#2F2F2F"/>
</svg>
